<?xml version="1.0" standalone="no"?>
<!DOCTYPE svg PUBLIC "-//W3C//DTD SVG 20010904//EN"
 "http://www.w3.org/TR/2001/REC-SVG-20010904/DTD/svg10.dtd">
<svg version="1.0" xmlns="http://www.w3.org/2000/svg"
 width="1024.000000pt" height="1024.000000pt" viewBox="0 0 1024.000000 1024.000000"
 preserveAspectRatio="xMidYMid meet">
<metadata>
Created by potrace 1.11, written by Peter Selinger 2001-2013
</metadata>
<g transform="translate(0.000000,1024.000000) scale(0.100000,-0.100000)"
fill="#000000" stroke="none">
<path d="M0 5120 l0 -5120 5120 0 5120 0 0 5120 0 5120 -5120 0 -5120 0 0
-5120z m1587 3138 c81 -89 112 -306 95 -668 -10 -205 -15 -244 -56 -444 -25
-120 -46 -222 -46 -226 0 -4 40 31 89 79 184 181 307 230 415 167 154 -90 258
-547 226 -992 -10 -152 -41 -368 -53 -380 -11 -11 -108 14 -145 36 -62 38 -66
58 -72 425 -7 356 -9 372 -66 459 -25 37 -26 38 -44 20 -48 -51 -291 -414
-357 -533 -147 -265 -211 -322 -315 -275 -66 30 -67 34 -69 279 -2 194 1 242
25 405 32 220 113 694 161 945 19 99 44 248 55 330 34 256 40 285 65 335 33
65 58 75 92 38z m2919 -615 c101 -108 112 -237 49 -560 -13 -70 -67 -391 -120
-713 -84 -517 -146 -872 -161 -921 -5 -17 -17 -17 -105 2 -29 7 -57 21 -75 40
-25 26 -27 35 -26 96 3 115 49 420 107 701 21 107 34 202 91 667 15 125 89
502 120 615 9 30 22 65 30 78 20 31 59 28 90 -5z m634 -112 c14 -10 39 -42 57
-71 71 -117 49 -248 -47 -269 -51 -11 -95 4 -129 46 -85 103 -80 259 10 306
38 19 70 16 109 -12z m1475 -433 c29 -99 21 -194 -39 -435 -30 -120 -110 -482
-177 -805 -68 -324 -126 -593 -130 -600 -5 -8 -41 0 -127 30 -65 23 -126 42
-136 42 -9 0 -67 -27 -130 -60 -132 -69 -200 -84 -339 -78 -110 5 -188 36
-255 101 -120 117 -180 333 -138 497 37 144 129 285 283 430 237 225 394 260
627 143 38 -19 72 -31 76 -26 14 14 58 168 110 377 72 294 129 437 207 522
l35 39 59 -62 c42 -46 62 -77 74 -115z m-3187 56 c204 -81 351 -172 468 -289
97 -98 125 -158 131 -278 9 -168 -54 -339 -168 -462 -51 -55 -80 -74 -190
-130 -137 -70 -307 -142 -400 -168 -318 -93 -635 -78 -763 34 -77 68 -91 105
-90 234 1 127 18 214 67 343 93 247 301 479 539 600 46 23 125 65 176 92 108
58 135 61 230 24z m1570 -317 c22 -26 42 -144 48 -272 6 -126 5 -136 -36 -325
-48 -226 -98 -431 -141 -577 -39 -134 -99 -303 -108 -303 -20 0 -106 67 -126
99 -40 61 -47 118 -40 326 10 278 29 378 184 975 l17 65 78 7 c43 4 81 10 84
13 9 9 29 5 40 -8z m2475 -356 c57 -10 90 -32 134 -92 70 -95 79 -122 96 -279
19 -188 15 -239 -43 -547 -11 -56 -29 -173 -40 -260 -26 -203 -36 -252 -66
-341 -13 -40 -24 -76 -24 -82 0 -5 -9 -34 -20 -64 -20 -51 -23 -55 -61 -61
-52 -9 -78 14 -125 111 -32 66 -34 78 -34 172 0 99 -10 152 -29 152 -5 0 -22
-11 -38 -23 -15 -13 -41 -27 -58 -31 -16 -4 -49 -20 -71 -36 -49 -35 -242
-132 -297 -150 -75 -24 -216 12 -250 64 -9 13 -29 36 -45 53 -51 51 -77 218
-49 315 9 29 21 78 28 108 6 30 24 83 39 116 37 82 180 280 290 401 131 144
386 394 428 420 100 60 141 76 172 66 8 -3 37 -8 63 -12z m530 -51 c26 -16 70
-53 97 -82 88 -92 139 -212 239 -563 52 -180 106 -318 123 -313 4 2 71 100
148 218 186 285 248 407 305 605 31 108 71 123 138 53 99 -104 118 -269 55
-473 -34 -109 -122 -272 -264 -490 -151 -232 -196 -306 -288 -470 -37 -66
-109 -183 -160 -260 -51 -77 -117 -185 -147 -240 -104 -192 -191 -239 -320
-174 -51 25 -89 74 -89 112 0 61 21 107 131 289 206 340 236 422 226 622 -7
134 -21 186 -133 488 -99 268 -131 379 -140 493 -8 100 2 215 20 215 7 0 33
-13 59 -30z m-5932 -1100 c155 -47 264 -163 323 -340 95 -287 30 -445 -203
-491 -82 -16 -315 -8 -608 21 -122 13 -228 20 -236 17 -26 -10 -30 -83 -7
-134 29 -67 135 -166 204 -192 76 -28 187 -44 255 -37 147 17 273 41 379 72
63 19 127 34 141 34 56 0 121 -64 137 -133 11 -52 -5 -97 -54 -150 -187 -201
-542 -249 -885 -121 -203 77 -367 254 -412 446 -19 79 -19 243 -1 329 55 259
239 486 501 622 148 76 332 99 466 57z m827 -155 c35 -25 69 -93 110 -218 40
-120 77 -190 150 -283 l43 -55 109 139 c164 209 220 252 329 252 52 0 66 -4
86 -24 49 -49 44 -153 -14 -302 -49 -126 -95 -190 -199 -273 -111 -88 -135
-120 -135 -175 0 -50 17 -83 151 -301 115 -185 132 -227 132 -319 0 -71 -30
-216 -45 -216 -17 0 -117 69 -158 108 -21 20 -84 104 -140 187 -114 168 -211
293 -232 302 -9 3 -45 -23 -92 -67 -75 -70 -461 -367 -466 -359 -1 2 -29 43
-61 91 -47 70 -60 98 -64 137 -9 97 45 169 239 313 210 157 253 214 253 338 0
93 -28 194 -97 355 -52 121 -60 149 -61 205 -1 54 4 73 27 112 15 26 35 52 45
57 25 15 65 13 90 -4z m1779 -62 c44 -20 90 -90 99 -149 4 -27 0 -70 -12 -118
-24 -103 -16 -124 58 -154 31 -12 112 -31 179 -43 67 -11 138 -27 157 -35 40
-17 44 -15 57 33 6 20 22 45 37 56 24 18 32 19 68 8 23 -7 70 -38 114 -77 106
-92 110 -107 103 -326 -4 -95 -3 -191 1 -213 l7 -39 93 84 c210 191 269 234
388 280 158 63 481 1 614 -118 108 -95 131 -227 49 -276 -33 -20 -56 -15 -97
18 -42 35 -126 59 -213 59 -133 1 -158 -16 -511 -353 -167 -159 -323 -313
-347 -342 -134 -164 -175 -198 -237 -198 -36 0 -84 53 -109 121 -30 82 -27
272 8 444 33 156 52 363 42 452 -7 63 -7 64 -26 47 -25 -22 -112 -20 -284 7
-280 45 -346 7 -381 -221 -11 -75 -40 -177 -101 -355 -73 -215 -85 -262 -90
-337 -3 -49 -7 -88 -9 -88 -22 0 -117 27 -145 41 -45 22 -66 71 -75 167 -9 97
11 223 63 401 83 282 94 325 95 386 1 38 -5 71 -15 92 -17 32 -47 46 -239 113
-159 55 -209 158 -157 326 12 38 23 71 24 73 2 1 57 -18 122 -43 152 -59 221
-76 306 -76 125 0 165 39 211 209 28 103 46 138 79 151 31 12 35 12 74 -7z
m2667 -857 c17 -7 43 -27 56 -44 14 -17 35 -43 48 -59 43 -51 62 -110 73 -215
24 -237 27 -201 -40 -588 -11 -63 -27 -173 -36 -245 -9 -71 -18 -138 -21 -147
-4 -13 8 -20 53 -33 32 -9 152 -46 267 -81 255 -79 340 -99 477 -114 163 -18
272 1 407 69 55 28 61 34 52 50 -5 11 -24 22 -41 26 -18 4 -55 21 -83 37 -28
17 -114 61 -191 98 -216 103 -302 180 -347 307 -16 47 -19 76 -16 148 3 79 8
98 38 153 43 81 112 143 214 192 134 64 183 75 336 74 148 0 209 -16 297 -75
79 -54 133 -148 133 -231 0 -30 -1 -30 -42 -24 -24 3 -114 10 -200 17 -182 13
-262 4 -355 -40 -102 -49 -101 -54 20 -111 324 -151 456 -220 522 -273 169
-135 224 -282 164 -442 -56 -151 -158 -232 -340 -271 -91 -20 -377 -22 -554
-5 -526 53 -807 139 -860 265 l-13 30 -13 -42 c-15 -50 -23 -58 -70 -67 -32
-6 -40 -3 -63 21 -14 16 -40 55 -58 89 -29 54 -33 70 -36 160 -1 55 -5 110 -8
123 -6 27 -35 29 -58 3 -10 -11 -32 -23 -50 -27 -17 -3 -62 -26 -101 -49 -99
-62 -276 -135 -324 -135 -22 0 -64 5 -93 11 -46 10 -62 21 -120 78 -53 54 -67
74 -72 106 -3 22 -11 65 -16 95 -10 57 2 130 50 291 25 83 111 213 242 368 79
92 438 438 487 468 94 58 113 64 184 58 38 -3 83 -11 101 -19z"/>
<path d="M5831 6075 c-178 -85 -321 -245 -353 -396 -14 -69 -6 -100 37 -147
31 -34 38 -37 87 -37 64 1 146 42 268 135 181 138 255 278 206 393 -23 55 -50
71 -124 75 -56 2 -76 -2 -121 -23z"/>
<path d="M3250 6760 c-237 -64 -483 -288 -522 -474 -12 -54 -11 -60 12 -104
30 -55 83 -85 182 -103 88 -16 204 0 350 47 340 110 511 280 454 452 -24 70
-75 125 -153 164 -57 28 -78 33 -157 35 -67 2 -111 -2 -166 -17z"/>
<path d="M7384 6136 c-11 -8 -37 -18 -58 -21 -43 -9 -68 -32 -198 -180 -116
-134 -251 -316 -288 -390 -17 -33 -36 -86 -42 -118 -12 -54 -11 -60 6 -73 24
-17 53 -11 134 28 75 35 174 113 222 173 19 24 54 58 78 75 58 42 118 137 146
235 64 215 73 278 41 283 -11 1 -29 -4 -41 -12z"/>
<path d="M1690 5037 c-30 -12 -71 -34 -91 -47 -59 -42 -138 -105 -139 -112 0
-11 152 -70 246 -93 114 -29 325 -50 353 -36 31 17 37 82 11 135 -69 143 -241
212 -380 153z"/>
<path d="M7205 3940 c-16 -11 -38 -20 -48 -20 -37 0 -75 -32 -189 -157 -212
-233 -330 -408 -344 -514 -8 -55 9 -74 58 -65 88 16 252 122 311 200 17 23 50
54 73 69 24 15 61 55 83 88 37 56 91 197 91 237 0 9 10 48 22 86 22 67 22 68
3 82 -24 18 -24 18 -60 -6z"/>
</g>
</svg>
